<svg viewBox="0 0 100 100" xml:space="preserve" xmlns="http://www.w3.org/2000/svg"><path d="M93.01 16.583c.228-2.926.181-7.012.181-9.986 0 0-14.545-.062-17.445-.18-5.855-.24-11.793.191-17.619.18-4.137-.008-8.21.117-12.393 0-2.644-.075-38.871.363-38.871.363-.074 2.59.265 29.564.017 35.879-.273 6.955.29 33.307.181 39.309-.062 3.432.347 6.086-.081 9.717l.081 1.59c13.382 0 27.258.277 40.916.182-.058-5.368.204-10.888-.028-17.967-.048-1.454-.097-16.768-.266-17.574 0 0-6.469.045-9.419.062 0 0-.198-5.652-.198-7.562v-5.632s7.524-.408 9.639-.593c0 0 .295-7.168.589-9.491.336-2.653.409-5.333 1.968-7.682 2.854-4.295 5.69-8.081 10.938-9.224 1.984-.432 15.083-3.006 15.57-.89l-.294 12.748c-3.56 0-7.822-.363-11.454 2.337-2.023 1.505-2.578 2.759-2.784 5.231-.12 1.44-.149 7.266-.149 7.266 1.918.275 4.757.154 6.818 0 2.33-.173 8.308.445 8.308.445 0 3.855-.154 12.76-.14 13.139-2.381-.039-4.557.031-7.324-.089-.449-.021-7.655.087-7.634.217.523 3.206-.229 6.61-.184 9.851.026 1.889.582 18.976.327 25.276 3.186-.027 6.382-.05 9.633-.05 3.835 0 17.338.002 21.158 0-.001-.001-.637-69.198-.041-76.872z" fill="#fcfdff" class="fill-3a5897"></path></svg>