<svg viewBox="0 0 512 512" xml:space="preserve" xmlns="http://www.w3.org/2000/svg"><circle cx="255.999" cy="256" r="251.408" fill="#c72525" class="fill-000000"></circle><g fill="#FFFFFF" class="fill-ffffff"><path d="M131.233 213.256h54.887v165.096h-54.887zM159.048 133.647c-18.78 0-31.048 12.346-31.048 28.528 0 15.84 11.896 28.527 30.32 28.527h.355c19.138 0 31.051-12.686 31.051-28.527-.354-16.182-11.911-28.528-30.678-28.528zM320.818 209.373c-29.113 0-42.154 16.011-49.457 27.256v-23.375h-54.872c.727 15.487 0 165.097 0 165.097h54.872v-92.2c0-4.936.354-9.87 1.81-13.398 3.96-9.855 12.994-20.065 28.155-20.065 19.848 0 27.799 15.145 27.799 37.33v88.333H384v-94.676c0-50.711-27.076-74.302-63.182-74.302z"></path></g></svg>